<svg width="32" height="32" viewBox="0 0 32 32" fill="none" xmlns="http://www.w3.org/2000/svg">
<circle cx="16" cy="16" r="16" fill="white"/>
<g clip-path="url(#clip0_2498_1964)">
<path d="M22.9083 17.9502L18.6083 18.7719" stroke="#259EA6" stroke-width="1.5" stroke-linecap="round" stroke-linejoin="round"/>
<path d="M18.0133 13.065L15.1233 14.02C14.8997 14.0936 14.6568 14.0824 14.4409 13.9885C14.225 13.8946 14.0511 13.7246 13.9525 13.5108C13.8461 13.2826 13.8327 13.022 13.9149 12.7841C13.9972 12.5462 14.1687 12.3496 14.3933 12.2358L17.1925 10.8283C17.4311 10.708 17.6918 10.6379 17.9586 10.6224C18.2253 10.6069 18.4924 10.6464 18.7433 10.7383L22.8875 12.2541" stroke="#259EA6" stroke-width="1.5" stroke-linecap="round" stroke-linejoin="round"/>
<path d="M9.07086 17.9567H11.1084L14.035 21.2367C14.1841 21.4094 14.3824 21.5324 14.6033 21.5892C14.8243 21.646 15.0573 21.6339 15.2712 21.5544C15.485 21.475 15.6694 21.332 15.7997 21.1447C15.93 20.9575 15.9999 20.7348 16 20.5067V19.9942L16.1459 20.0525C16.3552 20.1363 16.5819 20.1674 16.8061 20.1433C17.0303 20.1192 17.2451 20.0405 17.4318 19.9141C17.6186 19.7877 17.7715 19.6175 17.8772 19.4184C17.983 19.2192 18.0383 18.9972 18.0384 18.7717H18.4459C18.6729 18.7716 18.8954 18.7082 19.0885 18.5888C19.2816 18.4694 19.4377 18.2985 19.5392 18.0955C19.6408 17.8924 19.6838 17.6651 19.6635 17.4389C19.6431 17.2128 19.5603 16.9968 19.4242 16.815L16.8084 13.4634" stroke="#259EA6" stroke-width="1.5" stroke-linecap="round" stroke-linejoin="round"/>
<path d="M14.8192 12.0207L14.5208 11.7749C14.2202 11.5535 13.8567 11.4341 13.4833 11.4341C13.2609 11.434 13.0405 11.4767 12.8342 11.5599L9.125 13.0432" stroke="#259EA6" stroke-width="1.5" stroke-linecap="round" stroke-linejoin="round"/>
<path d="M6.625 11.6252H8.29167C8.50328 11.6164 8.70976 11.6918 8.86594 11.8348C9.02212 11.9779 9.11527 12.177 9.125 12.3885V17.736C9.11526 17.9477 9.02214 18.1469 8.86599 18.2901C8.70984 18.4332 8.50336 18.5088 8.29167 18.5002H6.625" stroke="#259EA6" stroke-width="1.5" stroke-linecap="round" stroke-linejoin="round"/>
<path d="M25.375 18.5002H23.7083C23.4966 18.5088 23.2902 18.4332 23.134 18.2901C22.9779 18.1469 22.8847 17.9477 22.875 17.736V12.3885C22.8847 12.177 22.9779 11.9779 23.1341 11.8348C23.2902 11.6918 23.4967 11.6164 23.7083 11.6252H25.375" stroke="#259EA6" stroke-width="1.5" stroke-linecap="round" stroke-linejoin="round"/>
<path d="M16 19.9942L15.185 19.1792" stroke="#259EA6" stroke-width="1.5" stroke-linecap="round" stroke-linejoin="round"/>
<path d="M18.0383 18.7717L16.815 17.5483" stroke="#259EA6" stroke-width="1.5" stroke-linecap="round" stroke-linejoin="round"/>
</g>
<defs>
<clipPath id="clip0_2498_1964">
<rect width="20" height="20" fill="white" transform="translate(6 6)"/>
</clipPath>
</defs>
</svg>
