<svg width="32" height="32" viewBox="0 0 32 32" fill="none" xmlns="http://www.w3.org/2000/svg">
<circle cx="16" cy="16" r="16" fill="#FFB92B"/>
<g clip-path="url(#clip0_2249_30)">
<path d="M22.9074 17.95L18.6074 18.7716" stroke="#0F0A23" stroke-width="1.5" stroke-linecap="round" stroke-linejoin="round"/>
<path d="M18.0129 13.065L15.1229 14.02C14.8993 14.0936 14.6564 14.0824 14.4405 13.9885C14.2246 13.8946 14.0508 13.7246 13.9521 13.5108C13.8458 13.2826 13.8323 13.022 13.9146 12.7841C13.9968 12.5462 14.1684 12.3496 14.3929 12.2358L17.1921 10.8283C17.4307 10.708 17.6914 10.6379 17.9582 10.6224C18.2249 10.6069 18.492 10.6464 18.7429 10.7383L22.8871 12.2541" stroke="#0F0A23" stroke-width="1.5" stroke-linecap="round" stroke-linejoin="round"/>
<path d="M9.07031 17.9567H11.1078L14.0345 21.2367C14.1835 21.4094 14.3818 21.5324 14.6028 21.5892C14.8237 21.646 15.0568 21.6339 15.2706 21.5544C15.4845 21.475 15.6689 21.332 15.7992 21.1447C15.9295 20.9575 15.9994 20.7348 15.9995 20.5067V19.9942L16.1453 20.0525C16.3547 20.1363 16.5813 20.1674 16.8055 20.1433C17.0297 20.1192 17.2446 20.0405 17.4313 19.9141C17.618 19.7877 17.7709 19.6175 17.8767 19.4184C17.9824 19.2192 18.0377 18.9972 18.0378 18.7717H18.4453C18.6724 18.7716 18.8949 18.7082 19.088 18.5888C19.2811 18.4694 19.4371 18.2985 19.5387 18.0955C19.6402 17.8924 19.6832 17.6651 19.6629 17.4389C19.6426 17.2128 19.5598 16.9968 19.4236 16.815L16.8078 13.4634" stroke="#0F0A23" stroke-width="1.5" stroke-linecap="round" stroke-linejoin="round"/>
<path d="M14.8192 12.0207L14.5208 11.7749C14.2202 11.5535 13.8567 11.4341 13.4833 11.4341C13.2609 11.434 13.0405 11.4767 12.8342 11.5599L9.125 13.0432" stroke="#0F0A23" stroke-width="1.5" stroke-linecap="round" stroke-linejoin="round"/>
<path d="M6.625 11.625H8.29167C8.50328 11.6161 8.70976 11.6915 8.86594 11.8346C9.02212 11.9776 9.11527 12.1767 9.125 12.3883V17.7358C9.11526 17.9474 9.02214 18.1466 8.86599 18.2898C8.70984 18.433 8.50336 18.5086 8.29167 18.5H6.625" stroke="#0F0A23" stroke-width="1.5" stroke-linecap="round" stroke-linejoin="round"/>
<path d="M25.375 18.5H23.7083C23.4966 18.5086 23.2902 18.433 23.134 18.2898C22.9779 18.1466 22.8847 17.9474 22.875 17.7358V12.3883C22.8847 12.1767 22.9779 11.9776 23.1341 11.8346C23.2902 11.6915 23.4967 11.6161 23.7083 11.625H25.375" stroke="#0F0A23" stroke-width="1.5" stroke-linecap="round" stroke-linejoin="round"/>
<path d="M16.0005 19.9942L15.1855 19.1792" stroke="#0F0A23" stroke-width="1.5" stroke-linecap="round" stroke-linejoin="round"/>
<path d="M18.0378 18.7717L16.8145 17.5483" stroke="#0F0A23" stroke-width="1.5" stroke-linecap="round" stroke-linejoin="round"/>
</g>
<defs>
<clipPath id="clip0_2249_30">
<rect width="20" height="20" fill="white" transform="translate(6 6)"/>
</clipPath>
</defs>
</svg>
