<svg width="32" height="32" viewBox="0 0 32 32" fill="none" xmlns="http://www.w3.org/2000/svg">
<circle cx="16" cy="16" r="16" fill="#F4462F"/>
<g clip-path="url(#clip0_2082_1735)">
<path d="M22.9094 17.9492L18.6094 18.7709" stroke="white" stroke-width="1.5" stroke-linecap="round" stroke-linejoin="round"/>
<path d="M18.011 13.0669L15.121 14.0219C14.8974 14.0955 14.6545 14.0843 14.4385 13.9904C14.2226 13.8965 14.0488 13.7265 13.9502 13.5127C13.8438 13.2846 13.8304 13.024 13.9126 12.7861C13.9949 12.5481 14.1664 12.3515 14.391 12.2377L17.1902 10.8302C17.4287 10.7099 17.6895 10.6399 17.9562 10.6244C18.223 10.6089 18.4901 10.6483 18.741 10.7402L22.8852 12.2561" stroke="white" stroke-width="1.5" stroke-linecap="round" stroke-linejoin="round"/>
<path d="M9.07031 17.9582H11.1078L14.0345 21.2382C14.1835 21.4109 14.3818 21.5339 14.6028 21.5907C14.8237 21.6475 15.0568 21.6353 15.2706 21.5559C15.4845 21.4764 15.6689 21.3335 15.7992 21.1462C15.9295 20.9589 15.9994 20.7363 15.9995 20.5082V19.9957L16.1453 20.054C16.3547 20.1377 16.5813 20.1689 16.8055 20.1448C17.0297 20.1206 17.2446 20.0419 17.4313 19.9156C17.618 19.7892 17.7709 19.619 17.8767 19.4198C17.9824 19.2207 18.0377 18.9987 18.0378 18.7732H18.4453C18.6724 18.773 18.8949 18.7097 19.088 18.5903C19.2811 18.4708 19.4371 18.3 19.5387 18.0969C19.6402 17.8939 19.6832 17.6665 19.6629 17.4404C19.6426 17.2143 19.5598 16.9982 19.4236 16.8165L16.8078 13.4648" stroke="white" stroke-width="1.5" stroke-linecap="round" stroke-linejoin="round"/>
<path d="M14.8192 12.0203L14.5208 11.7744C14.2202 11.5531 13.8567 11.4336 13.4833 11.4336C13.2609 11.4335 13.0405 11.4762 12.8342 11.5594L9.125 13.0428" stroke="white" stroke-width="1.5" stroke-linecap="round" stroke-linejoin="round"/>
<path d="M6.625 11.6257H8.29167C8.50328 11.6169 8.70976 11.6922 8.86594 11.8353C9.02212 11.9784 9.11527 12.1775 9.125 12.389V17.7365C9.11526 17.9482 9.02214 18.1474 8.86599 18.2905C8.70984 18.4337 8.50336 18.5093 8.29167 18.5007H6.625" stroke="white" stroke-width="1.5" stroke-linecap="round" stroke-linejoin="round"/>
<path d="M25.375 18.5007H23.7083C23.4966 18.5093 23.2902 18.4337 23.134 18.2905C22.9779 18.1474 22.8847 17.9482 22.875 17.7365V12.389C22.8847 12.1775 22.9779 11.9784 23.1341 11.8353C23.2902 11.6922 23.4967 11.6169 23.7083 11.6257H25.375" stroke="white" stroke-width="1.5" stroke-linecap="round" stroke-linejoin="round"/>
<path d="M16.0025 19.9947L15.1875 19.1797" stroke="white" stroke-width="1.5" stroke-linecap="round" stroke-linejoin="round"/>
<path d="M18.0358 18.7702L16.8125 17.5469" stroke="white" stroke-width="1.5" stroke-linecap="round" stroke-linejoin="round"/>
</g>
<defs>
<clipPath id="clip0_2082_1735">
<rect width="20" height="20" fill="white" transform="translate(6 6)"/>
</clipPath>
</defs>
</svg>
